<svg xmlns="http://www.w3.org/2000/svg"  x="0px" y="0px" viewBox="0 0 100 125" width="1em" height="1em" fill="currentColor">
	<g transform="translate(0,-952.36218)">
		<path style="text-indent:0;text-transform:none;direction:ltr;block-progression:tb;baseline-shift:baseline;color:#000000;enable-background:accumulate;" d="m 50.018801,1046.6115 c -0.0148,-6e-4 -0.0296,-10e-4 -0.0444,-0 -0.047,-5e-4 -0.094,-0 -0.1409,-0.01 -0.0078,-6e-4 -0.0157,-10e-4 -0.0235,-0 -0.3977,-0.036 -0.7835,-0.1947 -1.0917,-0.4487 -0.3081,-0.254 -0.5373,-0.6025 -0.6486,-0.986 L 23.692802,990.37798 c -0.1507,-0.3388 -0.2046,-0.72 -0.1537,-1.0873 0.0508,-0.3673 0.2063,-0.7195 0.4434,-1.0046 L 48.2616,959.09768 c 0.1792,-0.3042 0.4405,-0.5594 0.748801,-0.7314 0.3082,-0.172 0.6627,-0.2603 1.0156,-0.253 0.3447,0 0.6886,0.095 0.9874,0.2665 0.2988,0.1719 0.5518,0.4226 0.7266,0.7197 l 24.277498,29.1866 c 0.237099,0.2851 0.3926,0.6373 0.443399,1.0046 0.0509,0.3673 -0.003,0.7485 -0.1537,1.0873 l -24.371497,54.77652 c -0.1119,0.3944 -0.3485,0.7525 -0.6675,1.0101 -0.3189,0.2576 -0.7188,0.4135 -1.1279,0.4399 -0.0169,10e-4 -0.0337,0 -0.0506,0 -0.0236,0 -0.0472,0 -0.0709,0 z" 
			fill="#000000" 
			fill-opacity="1" 
			fill-rule="evenodd" 
			stroke="none" 
			marker="none" 
			visibility="visible" 
			display="inline" 
			overflow="visible"
		/>
	</g>
</svg>